# xmcd CD database file
#
# Track frame offsets:
#	150
#	17052
#	32887
#	58270
#	73300
#	86075
#	106695
#	125760
#	150677
#	168335
#	189317
#	205345
#	226405
#
# Disc length: 3245 seconds
#
# Revision: 1
# Processed by: cddbd v1.5.2PL0 Copyright (c) Steve Scherf et al.
# Submitted via: CDex 1.51
#
DISCID=b40cab0d
DTITLE=The Carter Brothers - Coming Back Singing The Blues
DYEAR=1900
DGENRE=Blues
TTITLE0=Things Gotta Change
TTITLE1=It's Gonna Hurt
TTITLE2=Coming Back Singing The Blues
TTITLE3=Anything For You
TTITLE4=Southern Country Boy
TTITLE5=Wonderful Girl
TTITLE6=Why Baby Why
TTITLE7=Let Me Love You
TTITLE8=Queen Bee
TTITLE9=Can't Get Next To You
TTITLE10=Further On Up The Road
TTITLE11=Wrong Number
TTITLE12=Don't Pity Me
EXTD=
EXTT0=
EXTT1=
EXTT2=
EXTT3=
EXTT4=
EXTT5=
EXTT6=
EXTT7=
EXTT8=
EXTT9=
EXTT10=
EXTT11=
EXTT12=
PLAYORDER=
